<?xml version="1.0" encoding="utf-8"?>
<!-- Generator: Adobe Illustrator 24.1.2, SVG Export Plug-In . SVG Version: 6.00 Build 0)  -->
<svg version="1.1" id="Layer_1" xmlns="http://www.w3.org/2000/svg" xmlns:xlink="http://www.w3.org/1999/xlink" x="0px" y="0px"
	 viewBox="0 0 880 1061" style="enable-background:new 0 0 880 1061;" xml:space="preserve">
<style type="text/css">
	.st0{fill:#20242D;stroke:#C7C8FF;stroke-width:1.0358;stroke-miterlimit:10;}
</style>
<g transform="translate(0.000000,1061.000000) scale(0.100000,-0.100000)">
	<path class="st0" d="M4156.6,10195c-281.1-36-518.2-114-763.9-252c-263.9-148-534.3-395-724.2-662c-224.2-315-386.3-733-445.3-1154
		c-21.5-154-21.5-455,0-617c52.6-394,201.7-783,420.6-1100c176-253,421.7-490,660.9-638c39.7-25,71.9-48,71.9-51
		c0-4-103-51-227.5-106c-375.5-162-836.9-362-1569.7-680c-129.8-57-409.9-178-622.3-270c-622.3-269-601.9-259-676-329
		c-71.9-66-130.9-166-156.7-266c-11.8-45-15-273-15-1230c0-1081,1.1-1180,18.2-1237c27.9-92,78.3-179,140.6-241
		c67.6-66,114.8-95,199.6-122c64.4-20,69.7-20,3928.1-20s3863.7,0,3928.1,20c35.4,12,82.6,31,104.1,44c61.2,36,147,127,182.4,193
		c69.7,128,66.5,62,66.5,1361c0,818-3.2,1197-11.8,1234c-27.9,126-125.5,263-231.8,326c-29,17-377.7,175-775.7,352
		c-398.1,177-886.3,394-1083.7,482c-980.7,435-1126.6,501-1126.6,508c0,4,6.4,10,13.9,13c8.6,3,64.4,40,124.5,82
		c474.2,333,823,882,949.6,1494c40.8,197,52.6,341,46.1,565c-12.9,464-162,939-413.1,1320c-188.8,286-460.3,548-738.2,712
		C5046.1,10152,4584.8,10249,4156.6,10195z"/>
</g>
</svg>
